<?xml version="1.0" standalone="no"?><!DOCTYPE svg PUBLIC "-//W3C//DTD SVG 1.1//EN" "http://www.w3.org/Graphics/SVG/1.1/DTD/svg11.dtd"><svg t="1706580211455" class="icon" viewBox="0 0 1024 1024" version="1.1" xmlns="http://www.w3.org/2000/svg" p-id="18061" xmlns:xlink="http://www.w3.org/1999/xlink" width="200" height="200"><path d="M512 0C229.804651 0 0 229.804651 0 512s229.804651 512 512 512 512-229.804651 512-512S794.195349 0 512 0z m0 952.55814C269.097674 952.55814 71.44186 754.902326 71.44186 512S269.097674 71.44186 512 71.44186s440.55814 197.655814 440.55814 440.55814-197.655814 440.55814-440.55814 440.55814z" fill="#09B971" p-id="18062"></path><path d="M581.060465 377.451163v321.488372h-1.190698c-7.144186 63.106977-82.15814 111.925581-159.553488 111.925581C339.348837 809.674419 273.860465 754.902326 273.860465 685.84186s66.67907-123.832558 147.646512-123.832558c38.102326 0 77.395349 13.097674 102.4 33.339535V241.711628s66.67907-75.013953 155.981395 47.627907c36.911628 50.009302 94.065116 3.572093 94.065116 3.572093s-14.288372 83.348837-94.065116 83.348837c-50.009302 0-51.2-44.055814-79.776744-45.246512-13.097674-1.190698-25.004651-11.906977-19.051163 46.43721z" fill="#09B971" p-id="18063"></path></svg>