<?xml version="1.0" standalone="no"?><!DOCTYPE svg PUBLIC "-//W3C//DTD SVG 1.1//EN" "http://www.w3.org/Graphics/SVG/1.1/DTD/svg11.dtd"><svg t="1706580511545" class="icon" viewBox="0 0 1097 1024" version="1.1" xmlns="http://www.w3.org/2000/svg" p-id="30516" xmlns:xlink="http://www.w3.org/1999/xlink" width="214.2578125" height="200"><path d="M821.638095 102.4h-614.4C152.624762 102.4 104.838095 150.186667 104.838095 204.8v614.4c0 54.613333 47.786667 102.4 102.4 102.4h614.4c54.613333 0 102.4-47.786667 102.4-102.4v-614.4c0-54.613333-47.786667-102.4-102.4-102.4z m-61.44 320.853333c-13.653333 6.826667-34.133333 0-47.786666-13.653333C691.931429 354.986667 637.318095 320.853333 582.704762 307.2v375.466667C582.704762 778.24 507.611429 853.333333 412.038095 853.333333S241.371429 778.24 241.371429 682.666667 316.464762 512 412.038095 512c40.96 0 75.093333 13.653333 102.4 34.133333v-273.066666c0-20.48 13.653333-34.133333 34.133334-34.133334 95.573333 0 184.32 54.613333 225.28 143.36 13.653333 13.653333 6.826667 34.133333-13.653334 40.96z" fill="#D8D8D8" fill-opacity="0" p-id="30517"></path><path d="M412.038095 580.266667C357.424762 580.266667 309.638095 628.053333 309.638095 682.666667S357.424762 785.066667 412.038095 785.066667 514.438095 737.28 514.438095 682.666667 466.651429 580.266667 412.038095 580.266667z" fill="#D8D8D8" fill-opacity="0" p-id="30518"></path><path d="M2.438095 0v1024h1024v-1024h-1024z m989.866667 819.2c0 95.573333-75.093333 170.666667-170.666667 170.666667h-614.4C111.664762 989.866667 36.571429 914.773333 36.571429 819.2v-614.4C36.571429 109.226667 111.664762 34.133333 207.238095 34.133333h614.4C917.211429 34.133333 992.304762 109.226667 992.304762 204.8v614.4z" fill="#D8D8D8" fill-opacity="0" p-id="30519"></path><path d="M821.638095 34.133333h-614.4C111.664762 34.133333 36.571429 109.226667 36.571429 204.8v614.4C36.571429 914.773333 111.664762 989.866667 207.238095 989.866667h614.4c95.573333 0 170.666667-75.093333 170.666667-170.666667v-614.4C992.304762 109.226667 917.211429 34.133333 821.638095 34.133333zM924.038095 819.2c0 54.613333-47.786667 102.4-102.4 102.4h-614.4c-54.613333 0-102.4-47.786667-102.4-102.4v-614.4C104.838095 150.186667 152.624762 102.4 207.238095 102.4h614.4c54.613333 0 102.4 47.786667 102.4 102.4v614.4zM514.438095 682.666667z" fill="#51BC77" p-id="30520"></path><path d="M548.571429 716.8c-20.48 0-34.133333-13.653333-34.133334-34.133333 0 54.613333-47.786667 102.4-102.4 102.4S309.638095 737.28 309.638095 682.666667 357.424762 580.266667 412.038095 580.266667 514.438095 628.053333 514.438095 682.666667v-136.533334c-27.306667-20.48-61.44-34.133333-102.4-34.133333C316.464762 512 241.371429 587.093333 241.371429 682.666667S316.464762 853.333333 412.038095 853.333333 582.704762 778.24 582.704762 682.666667c0 20.48-13.653333 34.133333-34.133333 34.133333z" fill="#51BC77" p-id="30521"></path><path d="M773.851429 382.293333C732.891429 293.546667 644.144762 238.933333 548.571429 238.933333c-20.48 0-34.133333 13.653333-34.133334 34.133334v273.066666c40.96 34.133333 68.266667 81.92 68.266667 136.533334V307.2c54.613333 13.653333 109.226667 47.786667 129.706667 102.4 6.826667 13.653333 27.306667 20.48 47.786666 13.653333 20.48-6.826667 27.306667-27.306667 13.653334-40.96z" fill="#51BC77" p-id="30522"></path><path d="M514.438095 546.133333v136.533334c0 20.48 13.653333 34.133333 34.133334 34.133333s34.133333-13.653333 34.133333-34.133333c0-54.613333-27.306667-102.4-68.266667-136.533334z" fill="#51BC77" p-id="30523"></path></svg>