<?xml version="1.0" standalone="no"?><!DOCTYPE svg PUBLIC "-//W3C//DTD SVG 1.1//EN" "http://www.w3.org/Graphics/SVG/1.1/DTD/svg11.dtd"><svg t="1706748512516" class="icon" viewBox="0 0 1024 1024" version="1.1" xmlns="http://www.w3.org/2000/svg" p-id="4558" xmlns:xlink="http://www.w3.org/1999/xlink" width="200" height="200"><path d="M0 503.495953C0 781.972372 225.019534 1006.991907 503.495953 1006.991907S1006.991907 781.972372 1006.991907 503.495953 781.972372 0 503.495953 0 0 225.019534 0 503.495953z" fill="#E7E7E7" p-id="4559"></path><path d="M797.53759 785.942798c-16.34204-27.620349-130.851405-62.375956-179.906297-97.131563-49.083663-34.755606-16.370811-65.425703 0-81.767742 16.34204-16.370811 28.627341-38.841116 65.425703-97.131563 36.798361-58.261675 0-65.425703 0-65.425702-3.078518-118.594875-21.463313-164.571249-65.425703-209.569402-11.249538-11.220767-30.670096-18.413566-52.133409-21.463313v-10.213775s-152.34349-13.292293-194.234354 31.677088c-41.919635 44.998153-62.375956 89.967534-65.425702 210.605165 0 0-36.827133 6.128265 0 65.425702 36.798361 58.261675 49.054891 81.767743 65.425702 97.102791 16.34204 15.335048 49.054891 46.005145 0 81.796514-49.083663 34.755606-164.571249 69.511213-179.935068 97.102791-9.206783 14.299285-24.541831 55.211928-36.798361 101.217073 24.541831 23.506068 156.400229 146.157682 380.297686 134.936915 0 0 176.85655-6.128265 301.55092-120.63763-11.220767-54.176165-28.59857-100.181309-38.841117-116.523349z" fill="#FFFFFF" p-id="4560"></path></svg>