<?xml version="1.0" standalone="no"?><!DOCTYPE svg PUBLIC "-//W3C//DTD SVG 1.1//EN" "http://www.w3.org/Graphics/SVG/1.1/DTD/svg11.dtd"><svg t="1706580498110" class="icon" viewBox="0 0 1024 1024" version="1.1" xmlns="http://www.w3.org/2000/svg" p-id="30206" xmlns:xlink="http://www.w3.org/1999/xlink" width="200" height="200"><path d="M758.49728 101.16608H265.4976c-90.6752 0-164.33664 73.66144-164.33664 164.33664v492.99968c0 90.67008 73.2928 164.33152 164.33664 164.33152h492.99968c90.67008 0 164.33664-73.66144 164.33664-164.33152V265.50272c-0.06656-90.73152-73.6-164.2752-164.33664-164.33664z m-294.656 605.9776c0 26.21952-21.27872 47.11936-47.11424 47.11936h-40.38656c22.67648-3.56864 40.38656-23.41376 40.38656-47.11936v-377.5488a23.424 23.424 0 0 0-23.74656-23.37792H321.49504a23.66464 23.66464 0 0 0-23.79264 23.41376v353.77664a23.7568 23.7568 0 0 0 23.74656 23.74144h23.75168c13.09696 0 24.77056 10.64448 24.77056 22.30784 0 13.80864-10.6496 24.07936-24.07936 25.14944H297.3696a47.17568 47.17568 0 0 1-47.49312-47.03744V305.51552c0-26.20928 21.24288-47.08352 47.45216-47.08352H416.3072a46.83264 46.83264 0 0 1 47.12448 47.08352v401.63328h0.4096z m332.2112-448.38912c0 26.21952-21.24288 47.13472-47.12448 47.13472h-166.43072a23.7568 23.7568 0 0 0-23.75168 23.7056v95.3088h237.30688v0.32768c0 22.6816-16.31232 42.15296-37.92896 46.42304v262.41024c0 26.20416-21.23776 47.11936-47.44704 47.11936V472.68352H558.7456v261.376c0 26.20416-21.23264 47.11936-47.11424 47.11936h-0.32768v-475.3408c0-26.16832 21.23264-47.08352 47.44704-47.08352h237.30176z m0 0" p-id="30207" fill="#FF6A6A"></path></svg>