<?xml version="1.0" standalone="no"?><!DOCTYPE svg PUBLIC "-//W3C//DTD SVG 1.1//EN" "http://www.w3.org/Graphics/SVG/1.1/DTD/svg11.dtd"><svg t="1706580262143" class="icon" viewBox="0 0 3765 1024" version="1.1" xmlns="http://www.w3.org/2000/svg" p-id="23839" xmlns:xlink="http://www.w3.org/1999/xlink" width="735.3515625" height="200"><path d="M3689.703226 203.148387v62.76129l-402.993549 11.561291-16.516129 186.632258c0 4.954839 1.651613 9.909677 4.954839 13.212903 3.303226 3.303226 6.606452 4.954839 11.56129 4.954839h151.948388v-165.161291l69.367741 14.864517v150.296774h213.058065V545.032258h-213.058065v295.63871h-137.083871l-18.167741-62.761291h87.535483V545.032258h-214.709677c-9.909677 0-19.819355-4.954839-26.425806-11.56129-6.606452-6.606452-9.909677-14.864516-9.909678-23.122581v-3.303226l26.425807-290.683871h9.909677l464.103226-13.212903z m-1144.567742 313.806452l462.451613 1.651613c19.819355 0 34.683871 16.516129 34.683871 34.683871v285.729032l-497.135484-1.651613V516.954839z m-452.541936-331.974194h61.109678c137.083871 0 247.741935 112.309677 247.741935 249.393549v155.251612c0 52.851613-18.167742 105.703226-49.548387 148.645162l69.367742 99.096774h-89.187097l-33.032258-47.896774c-42.941935 31.380645-94.141935 47.896774-146.993548 47.896774h-61.109678c-137.083871 0-247.741935-112.309677-247.741935-249.393548v-155.251613c0-137.083871 112.309677-247.741935 249.393548-247.741936z m-640.825806-1.651613h61.109677c137.083871 0 247.741935 112.309677 247.741936 249.393549v155.251613c0 52.851613-18.167742 105.703226-49.548387 148.645161l69.367742 99.096774h-89.187097l-33.032258-47.896774c-42.941935 31.380645-94.141935 47.896774-146.993549 47.896774h-61.109677c-137.083871 0-247.741935-112.309677-247.741935-249.393548v-155.251613c0-137.083871 112.309677-247.741935 249.393548-247.741936z m2130.580645 414.554839h80.929032l89.187097 213.058064h-80.929032l-89.187097-213.058064z m-328.670968 0h80.929033L3243.767742 809.290323h-80.929032l90.838709-211.406452z m-634.219354 110.658064v66.064517l348.490322 1.651613v-66.064517l-348.490322-1.651613z m-526.864517-449.238709c-95.793548 0-175.070968 77.625806-175.070967 175.070968v155.251612c0 95.793548 77.625806 175.070968 175.070967 175.070968h61.109678c37.987097 0 74.322581-11.56129 104.051613-34.683871l-102.4-146.993548h89.187096l62.761291 90.83871c14.864516-26.425806 21.470968-54.503226 21.470968-84.232259v-155.251612c0-95.793548-77.625806-175.070968-175.070968-175.070968h-61.109678z m-640.825806-3.303226c-95.793548 0-175.070968 77.625806-175.070968 175.070968v155.251613c0 95.793548 77.625806 175.070968 175.070968 175.070967h61.109677c37.987097 0 74.322581-11.56129 104.051613-34.683871l-102.4-146.993548h89.187097l62.76129 90.83871c14.864516-26.425806 21.470968-54.503226 21.470968-84.232258v-155.251613c0-95.793548-77.625806-175.070968-175.070968-175.070968h-61.109677z m1167.690323 323.716129v66.064516l348.490322 1.651613v-49.548387c0-4.954839-1.651613-9.909677-4.954839-13.212903-3.303226-3.303226-8.258065-4.954839-13.212903-4.954839h-330.32258z m-28.07742-254.348387h74.322581l37.987097 89.187097h180.025806l39.63871-87.535484h74.32258l-39.638709 87.535484h148.645161v62.76129l-624.309677-1.651613V412.903226h148.645161l-39.63871-87.535484z m151.948387-142.03871h85.883871l14.864516 49.548387h234.529033v62.761291l-563.2-1.651613V231.225806H2758.193548l-14.864516-47.896774z" p-id="23840"></path><path d="M802.683871 107.354839l-16.516129-104.051613-56.154839 61.109677C660.645161 29.729032 583.019355 11.56129 505.393548 11.56129 226.270968 11.56129 0 237.832258 0 516.954839c0 279.122581 226.270968 505.393548 505.393548 505.393548s505.393548-226.270968 505.393549-505.393548c0-168.464516-82.580645-318.76129-208.103226-409.6" fill="#FFDC00" p-id="23841"></path><path d="M351.793548 117.264516c-9.909677 0-18.167742 4.954839-23.12258 13.212903-4.954839 8.258065-4.954839 18.167742 0 26.425807l42.941935 72.670968L578.064516 586.322581c-26.425806-4.954839-52.851613-6.606452-79.277419-4.954839-127.174194 11.56129-221.316129 107.354839-211.406452 213.058064 9.909677 107.354839 118.916129 184.980645 246.090323 173.419355 127.174194-11.56129 221.316129-107.354839 211.406451-213.058064-3.303226-28.077419-11.56129-51.2-28.077419-77.625807L508.696774 317.109677C612.748387 262.606452 739.922581 148.645161 791.122581 0 660.645161 95.793548 495.483871 118.916129 351.793548 117.264516" fill="#2AB06B" p-id="23842"></path></svg>