<?xml version="1.0" standalone="no"?><!DOCTYPE svg PUBLIC "-//W3C//DTD SVG 1.1//EN" "http://www.w3.org/Graphics/SVG/1.1/DTD/svg11.dtd"><svg t="1706580101410" class="icon" viewBox="0 0 1024 1024" version="1.1" xmlns="http://www.w3.org/2000/svg" p-id="13877" xmlns:xlink="http://www.w3.org/1999/xlink" width="200" height="200"><path d="M468.889643 104.653719l202.546998 278.783722a204.799795 204.799795 0 1 1-181.145419-75.059125L347.545764 111.821712a51.455949 51.455949 0 0 1-5.119994-8.652791A51.199949 51.199949 0 0 1 366.899345 20.839403 508.466692 508.466692 0 0 1 512.0512 0.001024a513.791486 513.791486 0 0 1 131.942268 17.151983 51.199949 51.199949 0 0 1-26.316774 98.969501A406.425194 406.425194 0 0 0 512 102.400922c-14.489586 0-28.876771 0.767999-43.110357 2.252797z m121.497479 341.452459A102.399898 102.399898 0 1 0 614.399898 512.000512c0-23.961576-8.191992-45.977554-22.015978-63.436737l-0.1536 0.1024-1.843198-2.559997zM149.965162 149.965674a51.199949 51.199949 0 0 1 72.396728 72.396728 409.59959 409.59959 0 1 0 579.27622 0A51.199949 51.199949 0 0 1 873.983638 150.016874 510.46349 510.46349 0 0 1 1023.999488 512.000512c0 282.777317-229.222171 511.999488-511.999488 511.999488S0.000512 794.777829 0.000512 512.000512a510.46349 510.46349 0 0 1 149.96465-362.034838z" fill="#09B971" p-id="13878"></path></svg>