<?xml version="1.0" standalone="no"?><!DOCTYPE svg PUBLIC "-//W3C//DTD SVG 1.1//EN" "http://www.w3.org/Graphics/SVG/1.1/DTD/svg11.dtd"><svg t="1706580179323" class="icon" viewBox="0 0 1024 1024" version="1.1" xmlns="http://www.w3.org/2000/svg" p-id="17611" xmlns:xlink="http://www.w3.org/1999/xlink" width="200" height="200"><path d="M599.886 365.342c-12.335 0-22.336 10.01-22.336 22.336v104.098L437.493 371.241a19.187 19.187 0 0 0-13.854-5.764 22.59 22.59 0 0 0-2.44-0.135c-12.335 0-22.336 10.01-22.336 22.336v245.694c0 12.205 9.775 22.102 21.916 22.325 5.91 0.933 12.16-0.893 16.714-5.519L577.55 529.643V633.37c0 12.345 10.001 22.335 22.336 22.335 12.336 0 22.336-9.99 22.336-22.335V387.678c0-12.325-10-22.336-22.336-22.336z m-89.343-301.53c-246.709 0-446.708 199.998-446.708 446.713 0 246.715 199.998 446.712 446.708 446.712 246.703 0 446.711-199.997 446.711-446.712 0-246.715-200.008-446.713-446.71-446.713z m0 871.09c-234.385 0-424.382-189.996-424.382-424.377 0-234.38 189.997-424.375 424.382-424.375 234.38 0 424.376 189.996 424.376 424.375 0 234.38-189.997 424.377-424.376 424.377z" p-id="17612"></path></svg>