<?xml version="1.0" standalone="no"?><!DOCTYPE svg PUBLIC "-//W3C//DTD SVG 1.1//EN" "http://www.w3.org/Graphics/SVG/1.1/DTD/svg11.dtd"><svg t="1706580340246" class="icon" viewBox="0 0 1472 1024" version="1.1" xmlns="http://www.w3.org/2000/svg" p-id="26235" xmlns:xlink="http://www.w3.org/1999/xlink" width="287.5" height="200"><path d="M1344 1024H128a128 128 0 0 1-128-128V128a128 128 0 0 1 128-128h1216a128 128 0 0 1 128 128v768a128 128 0 0 1-128 128z m-204.8-284.864c15.808 21.12 35.2 48.128 57.6 80.256l38.016-33.088c-22.08-32-41.472-58.496-57.6-79.552a20.288 20.288 0 0 1 3.52-4.224 276.416 276.416 0 0 0 61.952-185.152 278.528 278.528 0 0 0-61.952-186.56 223.296 223.296 0 0 0-178.112-75.264 224.448 224.448 0 0 0-179.136 75.968 273.856 273.856 0 0 0-61.952 185.6 272.96 272.96 0 0 0 61.952 185.152 224.576 224.576 0 0 0 178.112 75.264 241.728 241.728 0 0 0 137.216-38.4z m-539.968 0c15.808 21.12 35.2 48.128 57.6 80.256l38.016-33.088c-22.08-32-41.472-58.496-57.6-79.552a19.2 19.2 0 0 1 3.52-4.224 276.416 276.416 0 0 0 61.888-185.152 278.528 278.528 0 0 0-61.888-186.56 223.488 223.488 0 0 0-178.432-75.328A224.704 224.704 0 0 0 283.52 331.52a273.92 273.92 0 0 0-61.888 185.6 272.96 272.96 0 0 0 61.888 185.152 224.768 224.768 0 0 0 178.112 75.264 241.792 241.792 0 0 0 137.28-38.4z m402.688-12.8a166.784 166.784 0 0 1-135.872-59.072 230.976 230.976 0 0 1-46.848-149.888 232.064 232.064 0 0 1 46.464-150.656 167.808 167.808 0 0 1 136.64-59.52 167.744 167.744 0 0 1 135.168 57.6 234.944 234.944 0 0 1 47.168 152.768 237.504 237.504 0 0 1-42.304 145.728 1984.96 1984.96 0 0 0-85.888-97.856l-34.496 33.088c27.328 28.736 55.744 61.952 84.48 98.56a179.2 179.2 0 0 1-104.832 29.376z m-540.032 0a166.4 166.4 0 0 1-135.808-59.072 230.976 230.976 0 0 1-46.464-150.016A232.064 232.064 0 0 1 325.76 366.72a167.808 167.808 0 0 1 136.576-59.52 167.68 167.68 0 0 1 135.104 57.6 234.944 234.944 0 0 1 47.168 152.768 237.568 237.568 0 0 1-42.24 145.728A1984.96 1984.96 0 0 0 516.48 565.44l-34.496 33.088c27.264 28.736 55.744 61.952 84.48 98.56a179.2 179.2 0 0 1-104.832 29.376z" fill="#00A4FF" p-id="26236"></path></svg>