<?xml version="1.0" standalone="no"?><!DOCTYPE svg PUBLIC "-//W3C//DTD SVG 1.1//EN" "http://www.w3.org/Graphics/SVG/1.1/DTD/svg11.dtd"><svg t="1706580561222" class="icon" viewBox="0 0 1024 1024" version="1.1" xmlns="http://www.w3.org/2000/svg" p-id="34203" xmlns:xlink="http://www.w3.org/1999/xlink" width="200" height="200"><path d="M799.990205 1023.999563H224.018528a222.65596 222.65596 0 0 1-87.19382-17.602918 223.240978 223.240978 0 0 1-71.197518-48.023834 223.232246 223.232246 0 0 1-48.023835-71.197518 222.533718 222.533718 0 0 1-17.602918-87.185089V224.027259a222.559913 222.559913 0 0 1 17.602918-87.19382 223.240978 223.240978 0 0 1 48.023835-71.20625 223.284636 223.284636 0 0 1 71.197518-48.023834 222.603571 222.603571 0 0 1 87.19382-17.602918h575.971677a222.603571 222.603571 0 0 1 87.19382 17.602918 223.284636 223.284636 0 0 1 71.197518 48.023834 223.171125 223.171125 0 0 1 48.023834 71.20625 222.559913 222.559913 0 0 1 17.602918 87.19382v575.980408a222.533718 222.533718 0 0 1-17.602918 87.185089 223.162393 223.162393 0 0 1-48.023834 71.197518 223.240978 223.240978 0 0 1-71.197518 48.023834 222.65596 222.65596 0 0 1-87.19382 17.585455z m-358.869019-727.421387a41.728346 41.728346 0 0 0-10.477927 1.353399A305.038665 305.038665 0 0 0 202.678482 593.155915a305.405393 305.405393 0 0 0 305.056129 305.056128 305.405393 305.405393 0 0 0 305.056129-305.056128 306.392064 306.392064 0 0 0-10.085006-78.060561 41.623567 41.623567 0 0 0-40.165389-30.98847 41.658494 41.658494 0 0 0-10.652559 1.388325 41.317961 41.317961 0 0 0-25.321659 19.279387 41.309229 41.309229 0 0 0-4.278487 31.547293 222.813129 222.813129 0 0 1 7.325818 56.825294 220.516717 220.516717 0 0 1-17.463213 86.355586 221.18905 221.18905 0 0 1-47.543596 70.525184 221.127929 221.127929 0 0 1-70.516452 47.552328 220.455595 220.455595 0 0 1-86.355586 17.463212 220.473059 220.473059 0 0 1-86.364318-17.463212 221.145392 221.145392 0 0 1-70.516452-47.552328 221.075539 221.075539 0 0 1-47.552328-70.525184 220.516717 220.516717 0 0 1-17.463213-86.355586 221.843921 221.843921 0 0 1 165.734619-214.71893 41.658494 41.658494 0 0 0 29.774778-50.748096 41.606104 41.606104 0 0 0-40.182852-31.101981z m63.97648 164.695557a130.214444 130.214444 0 0 0-27.137833 2.855236 130.031081 130.031081 0 0 0-25.967797 8.408536 129.847717 129.847717 0 0 0-23.889674 13.795938 130.389077 130.389077 0 0 0-20.859808 18.982512 129.996154 129.996154 0 0 0-22.606129 35.904365 130.502588 130.502588 0 0 0-9.805593 40.235242 130.450198 130.450198 0 0 0 3.248157 41.274303 130.336687 130.336687 0 0 0 16.590052 39.056475 130.860583 130.860583 0 0 0 21.366241 25.758239 130.502588 130.502588 0 0 0 26.500425 19.096022 131.1138 131.1138 0 0 0 62.535764 15.943914 130.773267 130.773267 0 0 0 36.402066-5.186575 130.57244 130.57244 0 0 0 38.279362-18.275252 130.860583 130.860583 0 0 0 29.792241-28.761911 131.096337 131.096337 0 0 0 19.305582-36.672746 129.812791 129.812791 0 0 0 6.836847-41.868052V345.483902a198.015367 198.015367 0 0 0 58.501762-25.321658 198.644043 198.644043 0 0 0 46.399756-41.431472 198.486874 198.486874 0 0 0 31.294077-53.751768 197.910588 197.910588 0 0 0 13.149799-62.3524 37.0744 37.0744 0 0 0-10.931971-26.395646 37.039474 37.039474 0 0 0-26.395646-10.940703h-149.310467a37.065669 37.065669 0 0 0-26.395646 10.940703 37.056937 37.056937 0 0 0-10.923239 26.395646v311.299227a131.262237 131.262237 0 0 0-27.600608-9.491256 130.511319 130.511319 0 0 0-28.334062-3.160842z m0 186.550769h-0.750918a56.091839 56.091839 0 0 1-55.236142-56.484762 56.135497 56.135497 0 0 1 55.978328-55.489357h0.244485a56.10057 56.10057 0 0 1 55.751306 55.978327 56.362519 56.362519 0 0 1-16.659905 39.859783 55.66399 55.66399 0 0 1-39.327154 16.179667z m130.616098-379.615315v-68.27243h69.058274a111.38037 111.38037 0 0 1-69.049542 68.298625z" fill="#6A83FF" p-id="34204"></path></svg>