<?xml version="1.0" standalone="no"?><!DOCTYPE svg PUBLIC "-//W3C//DTD SVG 1.1//EN" "http://www.w3.org/Graphics/SVG/1.1/DTD/svg11.dtd"><svg t="1706580411525" class="icon" viewBox="0 0 2905 1024" version="1.1" xmlns="http://www.w3.org/2000/svg" p-id="27760" xmlns:xlink="http://www.w3.org/1999/xlink" width="567.3828125" height="200"><path d="M521.709595 257.666572h59.706765v521.709596H521.709595zM1072.403057 257.666572h58.837249v521.709596H1072.403057z" fill="#FF6A6A" p-id="27761"></path><path d="M581.41636 489.537504h501.710727v57.967732H581.41636zM1834.678743 721.408435H1362.241721v-405.77413h521.709595v283.172375l57.967733 44.345315V314.764789a57.967733 57.967733 0 0 0-57.967733-57.967733H1362.241721a57.967733 57.967733 0 0 0-57.967733 57.967733v405.77413a57.967733 57.967733 0 0 0 57.967733 57.967733h521.709595a57.967733 57.967733 0 0 0 17.680159-3.188226z" fill="#FF6A6A" p-id="27762"></path><path d="M1796.999717 576.489103v55.359185a5.796773 5.796773 0 0 0 2.028871 4.34758L1970.902915 779.376168V724.59666a5.796773 5.796773 0 0 0-2.02887-4.34758z" fill="#FF6A6A" p-id="27763"></path></svg>