<?xml version="1.0" standalone="no"?><!DOCTYPE svg PUBLIC "-//W3C//DTD SVG 1.1//EN" "http://www.w3.org/Graphics/SVG/1.1/DTD/svg11.dtd"><svg t="1706580196370" class="icon" viewBox="0 0 1024 1024" version="1.1" xmlns="http://www.w3.org/2000/svg" p-id="17911" xmlns:xlink="http://www.w3.org/1999/xlink" width="200" height="200"><path d="M462.615 331.291a24.541 24.541 0 0 0-18.768-7.373 14.582 14.582 0 0 0-2.37-0.201c-4.76 0-9.136 2.334-12.597 6.23-0.495 0.433-0.99 0.867-1.458 1.344v0.466c-3.83 5.227-6.218 12.564-6.218 20.696V668.59c0 8.136 2.387 15.475 6.218 20.703v0.664a25.14 25.14 0 0 0 2.319 2.061c3.313 3.344 7.362 5.315 11.736 5.315 0.428 0 0.853-0.025 1.275-0.062 7.1 0.657 14.425-1.778 19.864-7.314L657.71 528.559c9.716-9.906 9.716-25.967 0-35.867l-195.095-161.4z m47.93-267.478c-246.714 0-446.709 199.996-446.709 446.71 0 246.71 199.995 446.713 446.71 446.713s446.708-200.003 446.708-446.713c0-246.714-199.995-446.71-446.709-446.71z m0 877.18c-237.734 0-430.466-192.732-430.466-430.47 0-237.742 192.73-430.466 430.466-430.466 237.743 0 430.465 192.724 430.465 430.466 0 237.738-192.722 430.47-430.465 430.47z" p-id="17912"></path></svg>