<?xml version="1.0" standalone="no"?><!DOCTYPE svg PUBLIC "-//W3C//DTD SVG 1.1//EN" "http://www.w3.org/Graphics/SVG/1.1/DTD/svg11.dtd"><svg t="1706579953055" class="icon" viewBox="0 0 1024 1024" version="1.1" xmlns="http://www.w3.org/2000/svg" p-id="7477" xmlns:xlink="http://www.w3.org/1999/xlink" width="200" height="200"><path d="M704 844.586667a384 384 0 1 1-98.773333-704l-131.2 75.733333A293.12 293.12 0 0 0 362.666667 253.44 298.666667 298.666667 0 1 0 770.56 362.666667a294.826667 294.826667 0 0 0-98.56-102.4l55.04-65.92A384 384 0 0 1 704 844.586667zM641.28 544a149.333333 149.333333 0 1 1-141.226667-74.666667l-92.586666-159.786666 73.813333-42.666667L721.92 128 533.333333 355.2z m-73.813333 42.666667A64 64 0 0 0 512 554.666667a62.293333 62.293333 0 0 0-31.786667 8.533333A64 64 0 0 0 512 682.666667a62.506667 62.506667 0 0 0 31.786667-8.746667 64 64 0 0 0 23.466666-87.253333z" p-id="7478" fill="#09B971"></path></svg>