<?xml version="1.0" standalone="no"?><!DOCTYPE svg PUBLIC "-//W3C//DTD SVG 1.1//EN" "http://www.w3.org/Graphics/SVG/1.1/DTD/svg11.dtd"><svg t="1706580438857" class="icon" viewBox="0 0 1024 1024" version="1.1" xmlns="http://www.w3.org/2000/svg" p-id="28479" xmlns:xlink="http://www.w3.org/1999/xlink" width="200" height="200"><path d="M964.080082 59.929135A197.365027 197.365027 0 0 0 819.192138 0.028466H204.826297a197.109041 197.109041 0 0 0-144.887944 59.900669A195.931506 195.931506 0 0 0 0.037683 204.817079v614.365842a197.928195 197.928195 0 0 0 59.90067 144.887944A197.109041 197.109041 0 0 0 204.826297 1023.971534h614.365841a204.532628 204.532628 0 0 0 204.788614-204.788613V204.817079a197.109041 197.109041 0 0 0-59.90067-144.887944m-310.766721 122.873168c0.511972-4.607744 0.921549-13.464851 1.279929-26.622519 5.119715 1.894295 10.239431 3.942181 15.359146 6.143658a403.535963 403.535963 0 0 1 127.736898 657.883422 409.16765 409.16765 0 0 1-128.504855 87.035161 405.020681 405.020681 0 0 1-314.350522 0 407.478144 407.478144 0 0 1-215.028045-215.540016 404.457512 404.457512 0 0 1 215.028045-529.634553 398.877022 398.877022 0 0 1 157.175261-31.742235 429.595315 429.595315 0 0 1 51.709125 3.071829c-6.143658 1.894295-12.645697 3.686195-19.454919 5.375701q-55.7537 13.055274-74.747844 18.942947a149.751674 149.751674 0 0 0-35.838007 15.615132 165.366806 165.366806 0 0 0-19.96689 12.287317 144.939141 144.939141 0 0 0-16.895061 13.567245 83.604952 83.604952 0 0 0-20.990833 28.414421c-5.478095 11.109782-7.065207 18.942947-5.119715 23.55069q0.972746 2.303872 92.922834 133.880556 28.158434 39.370611 108.025993 153.591461a230.38719 230.38719 0 0 1 17.407033 28.158434c0 1.382323-5.785278 0.614366-17.407033-2.303872q-25.342591-7.935559-65.788342-1.279929a247.538237 247.538237 0 0 0-72.443972 23.038719 202.382348 202.382348 0 0 0-48.637296 37.373922 177.602925 177.602925 0 0 0-35.838007 46.845396 143.35203 143.35203 0 0 0-14.335203 58.108769 128.453658 128.453658 0 0 0 8.191544 56.316869 131.371896 131.371896 0 0 0 29.694349 46.845395 189.736651 189.736651 0 0 0 48.125325 35.326036A123.999506 123.999506 0 0 0 453.644463 880.619505a300.629685 300.629685 0 0 0 38.909836 3.839786 210.522695 210.522695 0 0 0 64.764399-4.351758 211.495441 211.495441 0 0 0 99.578464-61.436584 156.151318 156.151318 0 0 0 43.005609-98.55452 132.19105 132.19105 0 0 0-6.911616-54.268983q-8.959502-24.062662-49.149267-94.97072Q581.125375 461.622001 532.488079 375.047615q-48.38131-85.499246-48.38131-87.035161l34.558079-4.351758a151.748363 151.748363 0 0 0 74.747844-21.502805 136.491611 136.491611 0 0 0 50.685181-54.012997 80.072348 80.072348 0 0 0 9.215488-25.598576z" fill="#1296db" p-id="28480"></path></svg>