<?xml version="1.0" standalone="no"?><!DOCTYPE svg PUBLIC "-//W3C//DTD SVG 1.1//EN" "http://www.w3.org/Graphics/SVG/1.1/DTD/svg11.dtd"><svg t="1706580190743" class="icon" viewBox="0 0 1024 1024" version="1.1" xmlns="http://www.w3.org/2000/svg" p-id="17761" xmlns:xlink="http://www.w3.org/1999/xlink" width="200" height="200"><path d="M413.082 348.084c-17.942 0-32.488 14.546-32.488 32.488v256.271c0 17.941 14.546 32.492 32.488 32.492s32.488-14.551 32.488-32.492V380.572c0-17.943-14.547-32.488-32.488-32.488z m97.463-284.27c-246.714 0-446.709 199.995-446.709 446.71 0 246.71 199.995 446.712 446.71 446.712s446.708-200.003 446.708-446.713c0-246.714-199.995-446.71-446.709-446.71z m0 877.178c-237.734 0-430.466-192.731-430.466-430.469 0-237.742 192.73-430.466 430.466-430.466 237.743 0 430.465 192.724 430.465 430.466 0 237.738-192.722 430.47-430.465 430.47z m95.045-592.908c-17.94 0-32.488 14.546-32.488 32.488v256.271c0 17.941 14.547 32.492 32.488 32.492s32.488-14.551 32.488-32.492V380.572c0-17.943-14.547-32.488-32.488-32.488z" p-id="17762"></path></svg>