<?xml version="1.0" standalone="no"?><!DOCTYPE svg PUBLIC "-//W3C//DTD SVG 1.1//EN" "http://www.w3.org/Graphics/SVG/1.1/DTD/svg11.dtd"><svg t="1706580581124" class="icon" viewBox="0 0 1024 1024" version="1.1" xmlns="http://www.w3.org/2000/svg" p-id="35273" xmlns:xlink="http://www.w3.org/1999/xlink" width="200" height="200"><path d="M512 554.666667a341.333333 341.333333 0 0 1 341.333333 341.333333 42.666667 42.666667 0 0 1-37.674666 42.368L810.666667 938.666667H213.333333a42.666667 42.666667 0 0 1-42.666666-42.666667 341.333333 341.333333 0 0 1 341.333333-341.333333z m85.333333 128a42.666667 42.666667 0 0 0-42.666666 42.666666l-0.298667 4.992A42.666667 42.666667 0 0 1 469.333333 725.333333l-0.298666-4.992A42.666667 42.666667 0 0 0 384 725.333333a128 128 0 0 0 256 0 42.666667 42.666667 0 0 0-42.666667-42.666666zM512 85.333333a213.333333 213.333333 0 1 1 0 426.666667 213.333333 213.333333 0 0 1 0-426.666667z" fill="#21D398" p-id="35274"></path></svg>