<?xml version="1.0" standalone="no"?><!DOCTYPE svg PUBLIC "-//W3C//DTD SVG 1.1//EN" "http://www.w3.org/Graphics/SVG/1.1/DTD/svg11.dtd"><svg t="1706580147449" class="icon" viewBox="0 0 1024 1024" version="1.1" xmlns="http://www.w3.org/2000/svg" p-id="14720" xmlns:xlink="http://www.w3.org/1999/xlink" width="200" height="200"><path d="M511.152 1010.67h-0.122c-66.178-0.018-130.391-12.997-190.853-38.588-58.383-24.71-110.806-60.073-155.816-105.101-45.01-45.028-80.344-97.47-105.027-155.87-25.562-60.471-38.518-124.688-38.499-190.867 0.014-66.177 12.998-130.39 38.588-190.853 24.71-58.379 60.072-110.807 105.1-155.816C209.558 128.566 262 93.232 320.394 68.55c60.43-25.544 124.614-38.5 190.745-38.5h0.122c66.179 0.016 130.39 12.998 190.848 38.588 58.384 24.712 110.807 60.073 155.817 105.101 45.01 45.033 80.348 97.476 105.031 155.868 25.558 60.472 38.513 124.694 38.494 190.868-0.02 92-25.676 181.677-74.194 259.338l-50.203-31.363c42.638-68.248 65.185-147.085 65.204-227.987 0.02-58.21-11.365-114.67-33.828-167.808-21.696-51.337-52.776-97.457-92.371-137.066-39.59-39.613-85.692-70.712-137.02-92.437-53.128-22.486-109.578-33.895-167.792-33.908h-0.107c-58.177 0-114.598 11.38-167.7 33.827-51.34 21.701-97.456 52.776-137.065 92.372-39.613 39.595-70.713 85.696-92.437 137.024-22.487 53.123-33.895 109.58-33.91 167.793-0.012 58.214 11.366 114.673 33.829 167.807 21.7 51.341 52.776 97.457 92.37 137.072 39.59 39.607 85.696 70.708 137.024 92.432 53.124 22.485 109.579 33.892 167.794 33.906h0.107c49.27 0 97.574-8.236 143.581-24.48 44.497-15.712 85.932-38.566 123.16-67.928l36.655 46.476c-42.338 33.39-89.474 59.387-140.109 77.267-52.347 18.482-107.287 27.858-163.286 27.858z m191.305-722.83" fill="#09B971" p-id="14721"></path><path d="M758.289 486.575c-2.987-0.428-5.65-2.561-7.997-6.398-2.345-3.84-4.162-10.878-5.44-21.119-2.13-16.637-7.57-28.9-16.319-36.794-8.743-7.89-22.289-13.544-40.63-16.956-19.197-3.838-36.157-11.625-50.87-23.356-14.718-11.73-26.984-22.717-36.796-32.954-9.383-8.958-16.638-12.16-21.757-9.6-5.119 2.561-7.68 7.252-7.68 14.079V441.142c0 23.886-0.103 49.696-0.318 77.428-0.21 27.725-0.319 53.963-0.319 78.706V699.013c0.428 10.243-1.177 21.652-4.801 34.235-3.624 12.585-10.45 24.423-20.474 35.516-10.027 11.09-23.358 20.584-39.993 28.475-16.638 7.892-37.33 12.477-62.071 13.756-25.167 1.28-47.883-3.198-68.147-13.44-20.263-10.234-35.94-23.14-47.032-38.709-11.09-15.57-16.532-32.637-16.317-51.194 0.213-18.555 8.211-35.94 23.996-52.149 15.784-16.21 32.848-27.515 51.193-33.914 18.34-6.397 36.045-9.919 53.11-10.56 17.062-0.636 32.312 0.535 45.752 3.523 13.437 2.987 23.353 5.756 29.753 8.317V441.783c0-50.34 0.213-107.078 0.64-170.21 0-12.372 3.201-22.501 9.599-30.396 6.4-7.89 14.931-12.477 25.594-13.757 8.958-1.28 16.319 0.533 22.075 5.44 5.762 4.906 11.625 11.73 17.6 20.477 5.972 8.745 13.33 18.66 22.073 29.751 8.749 11.092 20.586 21.973 35.515 32.638 12.797 9.808 23.994 16.849 33.593 21.114 9.602 4.269 18.56 8.214 26.878 11.838 8.317 3.628 16.529 8 24.632 13.118 8.11 5.12 17.068 13.437 26.879 24.956 9.811 11.091 15.784 22.61 17.917 34.556 2.131 11.946 2.239 22.823 0.319 32.633-1.92 9.812-5.013 17.81-9.277 23.998-4.27 6.183-7.894 9.063-10.88 8.636z m0 0" fill="#09B971" p-id="14722"></path></svg>