<?xml version="1.0" standalone="no"?><!DOCTYPE svg PUBLIC "-//W3C//DTD SVG 1.1//EN" "http://www.w3.org/Graphics/SVG/1.1/DTD/svg11.dtd"><svg t="1706709756662" class="icon" viewBox="0 0 1024 1024" version="1.1" xmlns="http://www.w3.org/2000/svg" p-id="17699" xmlns:xlink="http://www.w3.org/1999/xlink" width="200" height="200"><path d="M398.106 476.996H194.351c-43.886 0-79.412-35.527-79.412-79.412V193.829c0-43.364 35.526-78.89 79.412-78.89h203.755c43.886 0 79.412 35.526 79.412 79.412v203.755c-0.522 43.363-36.049 78.89-79.412 78.89z m0 432.065H194.351c-43.886 0-79.412-35.526-79.412-79.412V625.894c0-43.886 35.526-79.412 79.412-79.412h203.755c43.886 0 79.412 35.526 79.412 79.412v203.755c-0.522 43.886-36.049 79.412-79.412 79.412z m431.543 0H625.894c-43.886 0-79.412-35.526-79.412-79.412V625.894c0-43.886 35.526-79.412 79.412-79.412h203.755c43.886 0 79.412 35.526 79.412 79.412v203.755c0 43.886-35.526 79.412-79.412 79.412z" fill="#7BD4EF" p-id="17700"></path><path d="M727.771 476.996c-99.787 0-181.29-81.502-181.29-181.29s81.503-180.767 181.29-180.767 181.29 81.502 181.29 181.29-81.502 180.767-181.29 180.767z" fill="#F2CB51" p-id="17701"></path></svg>