<?xml version="1.0" standalone="no"?><!DOCTYPE svg PUBLIC "-//W3C//DTD SVG 1.1//EN" "http://www.w3.org/Graphics/SVG/1.1/DTD/svg11.dtd"><svg t="1706709781492" class="icon" viewBox="0 0 1024 1024" version="1.1" xmlns="http://www.w3.org/2000/svg" p-id="19054" xmlns:xlink="http://www.w3.org/1999/xlink" width="200" height="200"><path d="M450.23 779.26l367.2-367.34V169.33c0-34.93-28.32-63.25-63.25-63.25H135.16c-34.93 0-63.25 28.32-63.25 63.25v685.35c0 34.93 28.32 63.25 63.25 63.25h312.88l2.19-138.67z" fill="#4FAEC9" p-id="19055"></path><path d="M585.07 912.98l-96.91 2.46 2.47-96.91 363.75-363.75 94.44 94.44z" fill="#7BD6AF" p-id="19056"></path><path d="M480.05 923.54l2.75-108.34 2.22-2.29 369.36-369.3L960 549.24l-5.59 5.62-365.99 365.97-108.37 2.71z m18.38-101.66l-2.13 85.48 85.39-2.22 355.95-355.89-83.26-83.26-355.95 355.89z" fill="#353535" p-id="19057"></path><path d="M448.06 925.83h-312.9C95.93 925.83 64 893.9 64 854.67V169.33c0-39.22 31.93-71.15 71.15-71.15H754.2c39.22 0 71.15 31.93 71.15 71.15v242.61h-15.81V169.33c0-30.51-24.83-55.34-55.34-55.34H135.15c-30.51 0-55.34 24.83-55.34 55.34v685.35c0 30.51 24.83 55.34 55.34 55.34h312.9v15.81z" fill="#353535" p-id="19058"></path><path d="M647.93 487.42c0.74-6.73-1.39-13.4-5.9-18.41a23.625 23.625 0 0 0-17.66-7.91H286.39l-13.5-132.3h369.82c13.09 0 23.72-10.62 23.72-23.72s-10.62-23.72-23.72-23.72H246.64c-6.7 0-13.09 2.84-17.6 7.84-4.51 4.94-6.67 11.61-5.99 18.28l18.31 179.74c1.24 12.11 11.43 21.31 23.59 21.31H597.9l-14.27 130.2-138.97 54.72-138.79-54.72-5.99-52.93c-1.45-13.03-13.37-21.56-26.22-20.94-13.03 1.48-22.39 13.22-20.91 26.25l7.6 67.08c0.99 8.71 6.7 16.18 14.85 19.39l160.74 63.43c2.81 1.11 5.74 1.67 8.71 1.67 2.96 0 5.9-0.56 8.71-1.67l57.88-22.81 125.1-125.14 11.59-105.64z" fill="#F3F7D2" p-id="19059"></path></svg>