<?xml version="1.0" standalone="no"?><!DOCTYPE svg PUBLIC "-//W3C//DTD SVG 1.1//EN" "http://www.w3.org/Graphics/SVG/1.1/DTD/svg11.dtd"><svg t="1706709789822" class="icon" viewBox="0 0 1024 1024" version="1.1" xmlns="http://www.w3.org/2000/svg" p-id="19208" xmlns:xlink="http://www.w3.org/1999/xlink" width="200" height="200"><path d="M1024 320v512a64 64 0 0 1-64 64H64a64 64 0 0 1-64-64V320h1024z" fill="#EAEAEA" p-id="19209"></path><path d="M1024 192v128H0V192a64 64 0 0 1 64-64h896a64 64 0 0 1 64 64z" fill="#0586FE" p-id="19210"></path><path d="M96 192a32 32 0 1 1 0 64 32 32 0 0 1 0-64z m128 0a32 32 0 1 1 0 64 32 32 0 0 1 0-64z m128 0a32 32 0 1 1 0 64 32 32 0 0 1 0-64z" fill="#C0E0FF" p-id="19211"></path><path d="M960 448v64H576V448zM896 576v64H576V576zM896 704v64H576v-64z" fill="#CFCFCF" p-id="19212"></path><path d="M192 608V704H128V608z" fill="#F07563" p-id="19213"></path><path d="M320 544V704H256V544z" fill="#F0E263" p-id="19214"></path><path d="M448 512v192H384V512z" fill="#85E491" p-id="19215"></path></svg>